<?xml version="1.0" encoding="UTF-8"?>
<svg id="Layer_1" data-name="Layer 1" xmlns="http://www.w3.org/2000/svg" viewBox="0 0 540.54 600">
  <defs>
    <style>
      .cls-1 {
        fill: #546aed;
        stroke-width: 0px;
      }
    </style>
  </defs>
  <path class="cls-1" d="M501.51,121.4l-26.89-15.5-4.58-2.67L309.34,10.42c-24.14-13.9-54.08-13.9-78.14,0L39.03,121.4C14.9,135.31,0,161.2,0,189v221.96c0,27.8,14.9,53.7,39.03,67.6l192.17,110.98c12.07,6.95,25.59,10.46,39.03,10.46s27.04-3.51,39.11-10.46l157.72-91.04,1.61-.92,32.84-19.02c24.06-13.9,39.03-39.79,39.03-67.6v-221.96c0-27.8-14.97-53.69-39.03-67.6ZM148.18,93.6l98.3-56.75c7.33-4.2,15.58-6.34,23.75-6.34s16.5,2.14,23.83,6.34l153.6,88.75-147.57,147.49c-8.94,9.01-20.93,13.9-33.61,13.9h-118.31V93.6ZM117.62,488.72l-63.32-36.59c-14.67-8.48-23.76-24.21-23.76-41.17v-221.96c0-16.88,9.09-32.69,23.76-41.17l63.32-36.59v377.47ZM294.06,563.11c-14.66,8.48-32.92,8.48-47.58,0l-98.3-56.75v-188.81h118.31c12.68,0,24.67,4.96,33.61,13.98l144.59,144.59-150.62,86.99ZM509.99,410.96c0,16.96-9.09,32.69-23.75,41.17l-14.13,8.17-150.39-150.39c-2.83-2.82-5.8-5.27-8.94-7.64,3.13-2.29,6.11-4.73,8.94-7.56l153.29-153.3,11.23,6.42c14.66,8.48,23.75,24.29,23.75,41.17v221.96Z"/>
</svg>